PathFileType	4	(X/Y/Z)	C:/Users/beibeiliu/ov580/test_trc/User2\sequence.41_training_dense_left.trc
DataRate	CameraRate	NumFrames	NumMarkers	Units	OrigDataRate	OrigDataStartFrame	OrigNumFrames
120	120	19	19	mm	120	146	170
Frame#	Time	ThumbCMC			ThumbMCP			ThumbIP			ThumbTip			IndexMCP			IndexPIP			IndexTip			MiddleMCP			MiddlePIP			MiddleTip			RingMCP			RingPIP			RingTip			PinkyMCP			PinkyPIP			PinkyTip			BackHand1			BackHand2			BackHand3	
		X0	Y0	Z0	X1	Y1	Z1	X2	Y2	Z2	X3	Y3	Z3	X4	Y4	Z4	X5	Y5	Z5	X6	Y6	Z6	X7	Y7	Z7	X8	Y8	Z8	X9	Y9	Z9	X10	Y10	Z10	X11	Y11	Z11	X12	Y12	Z12	X13	Y13	Z13	X14	Y14	Z14	X15	Y15	Z15	X16	Y16	Z16	X17	Y17	Z17	X18	Y18	Z18	
145	1.20833	-257.878	23.2356	-24.4938	-236.26	50.6789	-39.3352	-207.35	65.257	-58.9923	-181.304	58.5086	-67.7835	-235.897	3.1265	-102.306	-221.016	18.0591	-124.141	-203.875	46.5726	-117.061	-209.99	-12.8153	-99.608	-188.908	8.81185	-119.659	-184.52	45.4189	-96.3695	-188.485	-10.7919	-87.1199	-166.549	12.6805	-99.3005	-165.806	46.0129	-83.1597	-168.827	-23.5216	-65.9816	-148.637	-11.9571	-81.7059	-132.572	7.14909	-94.9215	-215.093	-33.4197	-38.9927	-226.573	-45.1216	-10.0255	-252.707	-21.2284	-33.3667	
146	1.21667	-254.427	19.735	-23.2175	-234.482	48.5309	-39.5917	-209.927	68.6277	-58.0583	-181.89	56.6226	-65.7853	-233.089	1.90126	-101.752	-221.392	18.7491	-124.897	-200.141	50.9108	-114.032	-211.177	-11.328	-101.754	-187.16	11.6295	-119.214	-183.72	42.8841	-94.5859	-184.147	-9.04323	-90.6703	-164.711	18.2076	-98.9958	-164.425	44.4563	-82.356	-168.721	-21.0052	-65.592	-150.485	-9.45111	-84.5464	-134.84	12.5331	-98.0868	-214.966	-32.7873	-39.5879	-225.943	-44.1035	-12.3871	-250.496	-24.7457	-34.8675	
147	1.225	-253.123	21.4575	-25.7817	-234.664	52.2056	-40.7537	-206.063	62.9554	-58.869	-178.311	57.915	-69.9748	-234.904	3.01686	-102.174	-217.382	18.4746	-125.795	-198.48	46.4938	-117.065	-205.319	-12.0445	-102.742	-185.619	10.7946	-120.255	-180.024	41.3331	-95.4503	-181.704	-11.9542	-88.3073	-164.99	15.347	-99.8932	-162.113	45.103	-79.0289	-166.772	-24.1872	-66.5173	-147.441	-7.8444	-87.1176	-132.084	14.276	-96.9601	-211.437	-34.7115	-42.8721	-228.351	-43.0601	-9.78076	-252.151	-20.2846	-35.3294	
148	1.23333	-253.052	23.1595	-23.6247	-229.712	51.2675	-41.0776	-203.796	65.5263	-58.0586	-175.073	61.0571	-70.1023	-231.676	2.80865	-100.669	-213.258	16.6725	-125.219	-190.144	44.4825	-116.548	-209.477	-11.589	-103.729	-185.031	10.4288	-121.92	-172.864	38.803	-95.2841	-181.161	-16.4263	-90.7949	-163.749	7.56179	-102.93	-161.596	39.8813	-84.4642	-168.838	-26.8459	-68.3858	-147.409	-12.6774	-88.6835	-130.297	10.7305	-96.31	-213.079	-35.6764	-44.1556	-231.656	-43.8919	-10.901	-250.42	-20.9024	-36.9637	
149	1.24167	-248.935	23.0385	-22.2112	-228.881	54.7352	-35.1504	-200.911	71.1063	-57.2521	-174.006	63.3149	-70.503	-229.667	6.35758	-104.426	-211.909	17.6955	-123.823	-187.605	46.9944	-117.652	-213.288	-12.0499	-102.527	-187.086	3.9403	-125.282	-169.267	38.7591	-104.294	-190.781	-20.9498	-93.9429	-166.997	-2.56451	-108.967	-155.162	25.2205	-95.8986	-173.029	-31.3832	-68.0236	-149.014	-23.5763	-86.2516	-130.568	0.836899	-95.5422	-215.91	-38.5922	-43.7252	-229.344	-45.785	-11.5904	-253.835	-18.3012	-35.998	
150	1.25	-246.628	24.9756	-23.119	-223.749	54.4824	-35.5016	-202.753	73.944	-50.2934	-176.486	75.3111	-67.1186	-231.69	9.43324	-100.674	-213.034	27.309	-124.191	-184.793	44.1883	-120.53	-216.389	-14.8745	-105.564	-191.332	1.40058	-129.228	-169.789	27.5812	-122.803	-201.56	-25.7011	-98.1929	-178.459	-13.8516	-117.152	-159.936	13.9274	-112.941	-177.208	-39.3423	-71.301	-154.266	-29.6285	-91.9093	-133.411	-11.3032	-103.771	-223.361	-37.2695	-41.1684	-233.974	-43.6285	-12.7521	-256.283	-16.9183	-34.7224	
151	1.25833	-248.916	31.1503	-22.7653	-223.233	51.9336	-34.2399	-200.708	76.4812	-52.2637	-177.675	75.7778	-66.3063	-236.673	13.4221	-100.52	-216.595	29.0466	-121.911	-187.089	45.9832	-122.581	-226.062	-14.5498	-104.363	-205.836	-3.19569	-135.534	-177.091	21.9364	-140.487	-210.95	-31.02	-100.268	-193.093	-21.9391	-123.844	-171.893	-1.78285	-131.892	-187.943	-40.5674	-78.0416	-165.094	-38.3037	-97.3511	-146.056	-26.1093	-110.752	-228.474	-40.1035	-46.5781	-238.711	-45.1148	-14.4924	-256.459	-16.0864	-37.2298	
152	1.26667	-251.842	31.7631	-22.7794	-228.017	54.7856	-30.4948	-205.716	77.2141	-48.6748	-183.417	82.0417	-64.7585	-242.333	19.3888	-103.277	-222.469	35.3946	-122.305	-195.733	47.5587	-125.535	-235.202	-12.4761	-108.399	-218.93	-1.18731	-138.658	-190.129	15.8804	-151.34	-221.884	-29.5387	-99.2789	-206.009	-26.0852	-125.909	-181.129	-6.11803	-143.079	-195.852	-43.7772	-78.9943	-178.971	-38.6302	-103.887	-159.676	-29.38	-120.081	-236.384	-37.1345	-44.7779	-248.891	-41.537	-15.6542	-263.82	-13.5684	-34.5853	
153	1.275	-252.878	31.9549	-21.758	-228.647	58.5131	-32.1811	-204.474	73.3615	-51.2583	-183.663	79.867	-64.7059	-245.38	19.0531	-100.73	-222.909	38.7858	-122.119	-193.323	49.2557	-122.521	-243.611	-6.47293	-112.406	-224.752	0.738864	-139.596	-199.131	20.1223	-154.839	-227.303	-30.139	-99.6174	-213.375	-23.6069	-130.829	-195.127	-6.89841	-146.378	-207.138	-39.7374	-83.1266	-187.166	-40.7759	-108.562	-171.913	-33.7084	-125.965	-241.316	-36.2452	-49.8163	-252.946	-41.5298	-14.6202	-269.617	-10.7588	-33.2718	
154	1.28333	-249.159	34.5289	-19.2672	-221.452	59.3941	-32.4123	-196.022	74.7229	-53.366	-177.209	69.6579	-69.2414	-244.592	30.5673	-101.836	-218.833	40.1741	-115.491	-190.829	49.5277	-112.874	-246.702	-2.42106	-109.359	-230.577	9.8941	-138.617	-199.879	26.0095	-153.652	-237.504	-20.7618	-100.527	-220.127	-18.3416	-132.058	-199.881	-2.93878	-148.428	-215.496	-40.4528	-83.8186	-202.305	-37.8095	-113.257	-185.609	-34.2613	-129.362	-249.749	-30.4608	-47.5624	-257.15	-37.6248	-13.7618	-270.564	-1.84579	-33.6838	
155	1.29167	-241.074	36.7386	-10.7789	-210.42	51.4425	-29.9572	-184.761	66.6099	-48.6563	-165.996	61.6926	-72.1844	-239.679	39.4591	-91.6268	-209.208	49.366	-105.813	-178.053	49.5325	-98.3709	-249.206	9.40843	-105.408	-227.491	22.2652	-135.865	-198.506	29.4359	-148.312	-242.92	-12.4096	-100.732	-229.129	-11.2201	-129.57	-204.689	4.50715	-146.926	-225.34	-35.8228	-89.0742	-211.759	-37.5959	-113.99	-198.288	-33.5594	-134.469	-255.062	-24.4885	-46.3403	-263.435	-32.0042	-12.4018	-269.943	1.60129	-26.7186	
156	1.3	-231.461	39.1223	-9.47935	-202.188	50.792	-24.6685	-173.941	63.2976	-46.5199	-155.753	56.6876	-67.2071	-228.158	40.5237	-90.2065	-199.622	46.3485	-100.045	-169.297	42.5168	-89.9483	-245.147	15.4032	-105.45	-225.321	25.1034	-132.015	-191.57	30.922	-146.015	-242.615	-10.2108	-102.25	-229.375	0.0879317	-128.643	-202.403	8.45178	-145.437	-229.507	-30.9237	-84.1584	-219.964	-32.9051	-112.433	-204.597	-34.1176	-135.772	-253.242	-20.3325	-46.0213	-261.704	-25.7705	-13.3734	-263.797	8.40227	-27.4973	
157	1.30833	-224.844	41.3774	-1.77143	-194.079	49.9277	-16.7626	-165.693	59.2698	-42.2229	-153.414	46.9652	-65.5221	-223.594	49.0111	-83.7774	-194.312	49.0445	-95.3876	-161.96	39.7729	-85.4883	-243.358	21.3432	-98.2918	-222.438	33.3714	-128.755	-186.648	33.4949	-143.758	-242.664	-4.54549	-98.6814	-230.108	4.81786	-125.658	-201.543	11.2549	-143.954	-234.673	-29.136	-85.7098	-226.377	-28.8861	-112.867	-209.776	-24.1003	-135.4	-254.173	-17.2445	-45.6126	-262.306	-23.7738	-12.3699	-260.206	17.7499	-19.9511	
158	1.31667	-216.356	39.4412	-0.623952	-183.917	49.15	-16.3479	-160.377	51.0638	-37.9399	-148.077	42.3678	-62.7212	-217.642	53.2074	-81.1688	-188.086	50.3875	-93.5056	-161.031	34.0689	-86.6423	-241.527	36.9947	-96.6827	-224.298	42.6052	-122.679	-191.469	38.3937	-140.014	-247.274	8.80818	-98.4415	-234.686	16.4025	-123.186	-209.803	17.309	-141.774	-243.005	-20.7972	-85.7398	-235.889	-22.7763	-111.944	-218.367	-18.6068	-137.199	-256.152	-7.4442	-38.7754	-265.487	-16.2955	-9.27036	-256.663	25.3475	-16.3532	
159	1.325	-206.172	36.9434	7.65984	-173.663	42.7608	-13.3978	-150.484	43.8745	-39.6744	-144.836	33.0444	-65.2824	-211.076	61.7677	-69.9748	-181.275	52.8177	-90.9708	-162.824	30.2161	-87.9679	-240.108	47.1256	-85.9997	-221.089	53.0254	-118.6	-190.134	46.8806	-136.403	-250.045	22.4989	-89.6099	-238.307	33.2676	-117.129	-212.752	31.7086	-137.667	-250.5	-4.39234	-81.7307	-244.743	-2.84353	-110.169	-234.154	-0.258949	-133.734	-260.618	4.26217	-34.3775	-267.95	-4.20716	-6.08282	-250.606	31.4521	-10.9831	
160	1.33333	-199.304	31.5826	11.5541	-168.127	34.2594	-8.98606	-143.03	34.477	-36.2651	-141.434	26.6387	-67.6661	-205.839	65.3712	-67.5821	-181.242	58.0738	-87.5517	-160.58	28.491	-89.459	-233.825	61.0189	-79.0242	-217.072	65.354	-110.124	-189.242	52.5523	-133.968	-249.514	36.9427	-79.338	-240.552	44.4313	-114.117	-218.861	42.7213	-132.998	-255.309	5.64447	-76.487	-252.638	10.2591	-110.28	-240.43	15.6808	-133.811	-257.577	19.3072	-30.5082	-262.908	6.80999	1.77095	-242.344	39.0418	-0.0339364	
161	1.34167	-192.297	28.0384	13.3379	-159.242	27.0058	-6.8796	-139.283	26.1368	-36.372	-135.326	22.2103	-65.2755	-197.662	70.9313	-57.6123	-177.939	65.7808	-83.0119	-164.246	32.2142	-93.0409	-229.37	65.9769	-68.8133	-215.514	73.4298	-103.35	-192.441	61.6068	-129.379	-248.754	49.0039	-75.1388	-238.094	58.7077	-101.978	-218.295	53.5989	-130.146	-257.162	17.2439	-70.1773	-255.576	25.0993	-99.4309	-250.73	26.1396	-126.72	-255.292	25.4804	-25.3909	-263.05	11.4691	3.45337	-236.492	40.1278	2.13545	
162	1.35	-187.77	24.2984	13.7746	-157.117	21.5185	-7.52436	-134.722	19.5074	-32.2469	-130.832	18.4891	-59.88	-191.666	75.4881	-51.2729	-176.249	69.8728	-84.0437	-164.559	41.4684	-98.315	-222.625	76.0313	-63.5895	-206.207	83.946	-96.804	-189.054	71.4847	-123.735	-241.35	61.514	-68.8145	-235.728	68.6964	-95.416	-219.326	66.4656	-122.402	-259.661	31.5366	-66.8099	-260.78	37.2226	-95.1513	-254.478	43.1897	-123.575	-252.98	32.0814	-17.6253	-258.983	19.7827	9.62532	-225.642	43.1264	11.478	
163	1.35833	-180.944	20.711	15.365	-155.912	17.0906	-2.97293	-130.785	20.5307	-33.3336	-123.157	19.1209	-56.085	-185.287	76.2264	-47.1697	-172.811	77.712	-79.3139	-164.453	56.8251	-100.753	-212.915	80.8587	-56.1932	-204.553	88.9519	-88.3683	-187.694	80.4257	-118.611	-237.192	67.003	-59.2466	-229.722	79.641	-85.3275	-213.228	78.5061	-115.874	-255.02	42.1592	-59.3999	-257.703	52.722	-86.2708	-256.367	57.8572	-110.326	-249.303	39.4853	-10.6143	-251.53	24.6654	18.2936	-217.021	41.7187	15.8952	
